# xmcd
#
# Track frame offsets: 
#        150
#        11028
#        21580
#        31703
#        41467
#        51122
#        63137
#        73947
#        84485
#        95668
#        107686
#        117932
#        128428
#        139006
#        149632
#        160759
#        169538
#        182631
#        194609
#        204618
#        214193
#        224256
#        234656
#        244514
#        255199
#        265376
#        274886
#        284755
#
# Disc length: 3937 seconds
#
# Revision: 1
# Processed by: cddbd v1.5.2PL0 Copyright (c) Steve Scherf et al.
# Submitted via: ExactAudioCopyFreeDBPlugin 1.0
#
DISCID=a20f5f1c
DTITLE=Various Artist - Gumbo Ya Ya:  The Cosimo Matassa Story, Volum
DTITLE=e 2
DYEAR=2013
DGENRE=Rhythm and Blues
TTITLE0=Dave Bartholomew - Four Winds
TTITLE1=Smiley Lewis - One Night
TTITLE2=Fats Domino - I Can't Go On
TTITLE3=Fats Domino - Bo Weevil
TTITLE4=Dave Bartholomew - Shrimp and Gumbo
TTITLE5=Spiders - Witchcraft
TTITLE6=Lloyd Price - Woe Ho Ho
TTITLE7=Little Richard - Miss Ann
TTITLE8=Smiley Lewis - She's Got Me Hook, Line and Sinker
TTITLE9=Roland Cook - Tell Me Baby
TTITLE10=Roland Cook - Hear My Plea
TTITLE11=Bobby Marchan - Chickee-Wah-Wah
TTITLE12=Bobby Marchan - Don't Take Your Love from Me
TTITLE13=Fats Domino - When My Dreamboat Comes Home
TTITLE14=Little Richard - Lucille
TTITLE15=Little Richard - All Around the World
TTITLE16=Little Richard - Shake a Hand
TTITLE17=Smiley Lewis - Mama Don't Like It
TTITLE18=Bobby Charles - Laura Lee
TTITLE19=Little Richard - Jenny Jenny
TTITLE20=Little Richard - Good Golly Miss Molly
TTITLE21=Little Richard - Baby Face
TTITLE22=Little Richard - By the Light of the Silvery Moon
TTITLE23=Little Richard - Send Me Some Lovin'
TTITLE24=Sugar Boy Crawford - She's Got A Wobble (When She Walks)
TTITLE25=Fats Domino - I'm Walkin'
TTITLE26=Tommy Ridgley - When I Meet My Girl
TTITLE27=Bobby Marchan and The Clowns - Rockin' Behind The Iron Curtain
EXTD=Proper Box 174
EXTT0=
EXTT1=
EXTT2=
EXTT3=
EXTT4=
EXTT5=
EXTT6=
EXTT7=
EXTT8=
EXTT9=
EXTT10=
EXTT11=
EXTT12=
EXTT13=
EXTT14=
EXTT15=
EXTT16=
EXTT17=
EXTT18=
EXTT19=
EXTT20=
EXTT21=
EXTT22=
EXTT23=
EXTT24=
EXTT25=
EXTT26=
EXTT27=
PLAYORDER=
